<svg width="32" height="32" viewBox="0 0 32 32" fill="none" xmlns="http://www.w3.org/2000/svg">
  <!-- Background -->
  <rect width="32" height="32" rx="8" fill="url(#gradient)"/>
  
  <!-- S letter -->
  <path d="M8 10C8 8.89543 8.89543 8 10 8H22C23.1046 8 24 8.89543 24 10V12C24 13.1046 23.1046 14 22 14H10C8.89543 14 8 14.8954 8 16V18C8 19.1046 8.89543 20 10 20H22C23.1046 20 24 19.1046 24 18V16C24 14.8954 23.1046 14 22 14H10C8.89543 14 8 13.1046 8 12V10Z" fill="white"/>
  
  <!-- V letter -->
  <path d="M12 8L10 24H14L15 16L16 24H20L18 8H12Z" fill="white"/>
  
  <!-- Gradient definition -->
  <defs>
    <linearGradient id="gradient" x1="0%" y1="0%" x2="100%" y2="100%">
      <stop offset="0%" style="stop-color:#6366F1;stop-opacity:1" />
      <stop offset="100%" style="stop-color:#4F46E5;stop-opacity:1" />
    </linearGradient>
  </defs>
</svg> 